<svg xmlns="http://www.w3.org/2000/svg" xmlns:xlink="http://www.w3.org/1999/xlink" version="1.1" width="1000" height="1000" viewBox="0 0 1000 1000" xml:space="preserve">
<desc>Created with Fabric.js 3.5.0</desc>
<defs>
</defs>
<rect x="0" y="0" width="100%" height="100%" fill="#ffffff"/>
<g transform="matrix(1.0347 0 0 1.0347 194.781 691.4305)" id="130018">
<path style="stroke: none; stroke-width: 1; stroke-dasharray: none; stroke-linecap: butt; stroke-dashoffset: 0; stroke-linejoin: miter; stroke-miterlimit: 4; is-custom-font: none; font-file-url: none; fill: rgb(2,12,38); fill-rule: nonzero; opacity: 1;" transform=" translate(-305.0035, -635.0033)" d="M 294.7164 621.20348 c -19.51084 14.54436 -25.04043 40.13465 -25.04043 40.13465 s 26.10369 2.00928 45.61453 -12.53511 s 25.04043 -40.13465 25.04043 -40.13465 S 314.22725 606.65916 294.7164 621.20348 Z" stroke-linecap="round"/>
</g>
<g transform="matrix(1.0347 0 0 1.0347 176.1121 677.355)" id="840164">
<path style="stroke: none; stroke-width: 1; stroke-dasharray: none; stroke-linecap: butt; stroke-dashoffset: 0; stroke-linejoin: miter; stroke-miterlimit: 4; is-custom-font: none; font-file-url: none; fill: rgb(2,12,38); fill-rule: nonzero; opacity: 1;" transform=" translate(-286.9607, -621.3998)" d="M 302.84375 628.03207 c -9.37708 22.45621 -32.86178 34.02822 -32.86178 34.02822 s -8.28141 -24.83665 1.09568 -47.29286 s 32.86172 -34.02822 32.86172 -34.02822 S 312.22084 605.57587 302.84375 628.03207 Z" stroke-linecap="round"/>
</g>
<g transform="matrix(1.0347 0 0 1.0347 770.2585 583.159)" id="618472">
<path style="stroke: none; stroke-width: 1; stroke-dasharray: none; stroke-linecap: butt; stroke-dashoffset: 0; stroke-linejoin: miter; stroke-miterlimit: 4; is-custom-font: none; font-file-url: none; fill: rgb(202,202,202); fill-rule: nonzero; opacity: 1;" transform=" translate(-861.1815, -530.3628)" d="M 864.18723 563.11405 h 0 a 194.65688 194.65688 0 0 1 -1.63336 -42.19544 l 1.63336 -23.307 h 0 c -9.00016 17.90831 -6.96615 41.47881 0 65.50242 Z" stroke-linecap="round"/>
</g>
<g transform="matrix(1.0347 0 0 1.0347 779.1339 600.9097)" id="363664">
<path style="stroke: none; stroke-width: 1; stroke-dasharray: none; stroke-linecap: butt; stroke-dashoffset: 0; stroke-linejoin: miter; stroke-miterlimit: 4; is-custom-font: none; font-file-url: none; fill: rgb(202,202,202); fill-rule: nonzero; opacity: 1;" transform=" translate(-869.7592, -547.5182)" d="M 871.20535 567.013 h 0 a 143.0906 143.0906 0 0 1 -0.78588 -25.11633 l 0.78588 -13.87323 h 0 C 866.87509 538.68318 867.85373 552.71319 871.20535 567.013 Z" stroke-linecap="round"/>
</g>
<g transform="matrix(1.0347 0 0 1.0347 778.2133 677.5624)" id="290301">
<path style="stroke: none; stroke-width: 1; stroke-dasharray: none; stroke-linecap: butt; stroke-dashoffset: 0; stroke-linejoin: miter; stroke-miterlimit: 4; is-custom-font: none; font-file-url: none; fill: rgb(2,12,38); fill-rule: nonzero; opacity: 1;" transform=" translate(-868.8696, -621.6002)" d="M 902.40062 584.17028 v 7.79791 a 2.3515 2.3515 0 0 1 -2.33937 2.33937 h -3.899 a 0.777 0.777 0 0 0 -0.77979 0.77979 v 63.94288 a 2.35149 2.35149 0 0 1 -2.33937 2.33937 H 845.47587 a 2.34116 2.34116 0 0 1 -2.33938 -2.33937 V 595.08735 a 0.78216 0.78216 0 0 0 -0.77979 -0.77979 H 837.678 a 2.34117 2.34117 0 0 1 -2.33937 -2.33937 v -7.79791 a 2.33615 2.33615 0 0 1 2.33937 -2.33938 h 62.3833 A 2.3464 2.3464 0 0 1 902.40062 584.17028 Z" stroke-linecap="round"/>
</g>
<g transform="matrix(1.0347 0 0 1.0347 778.6893 652.2273)" id="142516">
<rect style="stroke: none; stroke-width: 1; stroke-dasharray: none; stroke-linecap: butt; stroke-dashoffset: 0; stroke-linejoin: miter; stroke-miterlimit: 4; is-custom-font: none; font-file-url: none; fill: rgb(230,230,230); fill-rule: nonzero; opacity: 1;" x="-26.123" y="-1.1697" rx="0" ry="0" width="52.246" height="2.3394"/>
</g>
<g transform="matrix(1.0347 0 0 1.0347 778.2133 678.6897)" id="387369">
<path style="stroke: none; stroke-width: 1; stroke-dasharray: none; stroke-linecap: butt; stroke-dashoffset: 0; stroke-linejoin: miter; stroke-miterlimit: 4; is-custom-font: none; font-file-url: none; fill: rgb(2,12,38); fill-rule: nonzero; opacity: 1;" transform=" translate(-868.8696, -622.6897)" d="M 895.3825 630.36884 c -17.48271 7.23486 -35.15611 7.31459 -53.0258 0 v -16.481 a 83.27378 83.27378 0 0 1 53.0258 0 Z" stroke-linecap="round"/>
</g>
<g transform="matrix(1.0347 0 0 1.0347 502.6394 352.781)" id="fff0188c-9915-4c0d-8339-9317a77083e8">
<circle style="stroke: none; stroke-width: 1; stroke-dasharray: none; stroke-linecap: butt; stroke-dashoffset: 0; stroke-linejoin: miter; stroke-miterlimit: 4; is-custom-font: none; font-file-url: none; fill: rgb(254,184,184); fill-rule: nonzero; opacity: 1;" cx="0" cy="0" r="70.6659"/>
</g>
<g transform="matrix(1.0347 0 0 1.0347 500.4973 308.8111)" id="ac220ed6-7c3f-4d1e-8d82-3295770c496a-1454">
<path style="stroke: none; stroke-width: 1; stroke-dasharray: none; stroke-linecap: butt; stroke-dashoffset: 0; stroke-linejoin: miter; stroke-miterlimit: 4; is-custom-font: none; font-file-url: none; fill: rgb(47,46,65); fill-rule: nonzero; opacity: 1;" transform=" translate(-600.4671, -265.2154)" d="M 668.54008 246.746 a 81.61376 81.61376 0 0 0 -46.43 -35.49166 l -8.6754 6.33079 v -8.22035 a 75.12281 75.12281 0 0 0 -14.03207 -0.81741 l -7.48468 6.7722 V 209.11 a 80.83444 80.83444 0 0 0 -55.76328 33.16889 c -16.25407 23.43225 -18.99783 56.03165 -3.01076 79.65191 c 4.38811 -13.48715 9.71486 -26.14193 14.1043 -39.62775 a 39.91571 39.91571 0 0 0 10.39873 0.05039 l 5.339 -12.45857 l 1.49177 11.93136 c 16.54971 -1.44138 41.0963 -4.60742 56.785 -7.50784 l -1.52581 -9.15355 l 9.12769 7.606 c 4.80635 -1.10624 7.66041 -2.11028 7.42476 -2.87726 c 11.66844 18.81119 25.94847 30.82566 37.61558 49.63682 C 678.33663 293.0056 683.43725 270.95065 668.54008 246.746 Z" stroke-linecap="round"/>
</g>
<g transform="matrix(1.0347 0 0 1.0347 506.6787 592.1682)" id="308995">
<path style="stroke: none; stroke-width: 1; stroke-dasharray: none; stroke-linecap: butt; stroke-dashoffset: 0; stroke-linejoin: miter; stroke-miterlimit: 4; is-custom-font: none; font-file-url: none; fill: rgb(2,12,38); fill-rule: nonzero; opacity: 1;" transform=" translate(-606.4412, -539.0698)" d="M 754.51974 489.43043 c -2.43 -14.61929 -4.93649 -29.51921 -11.73089 -42.68893 c -4.46552 -8.62629 -11.55394 -16.84664 -21.1096 -18.55231 a 20.4215 20.4215 0 0 1 -5.49659 -1.27245 c -2.79985 -1.34871 -40.42516 -22.82733 -46.40535 -26.56828 c -5.13471 -3.21152 -13.24023 -9.158 -17.32725 -9.158 c -4.11163 -0.09038 -19.87765 3.579 -81.41374 -1.23129 c 0 0 -16.90485 6.66319 -29.98543 14.74285 c -0.19823 -0.13063 -63.869 34.06031 -66.261 33.97034 c -4.53005 -0.19075 -8.74079 2.70971 -11.33775 6.36219 c -2.5963 3.65239 -3.81429 8.174 -5.08948 12.54576 c 13.90677 30.97 26.6308 61.97961 40.5389 92.94963 a 7.93068 7.93068 0 0 1 1.00579 3.81454 a 9.30964 9.30964 0 0 1 -1.7302 3.81453 c -6.82034 10.95592 -6.60348 24.736 -5.85845 37.61284 c 0.74569 12.87686 1.66766 26.47839 -4.087 38.02019 c -1.56523 3.16878 -3.60075 6.06924 -5.08948 9.238 c -3.48634 7.17681 -4.74624 30.13086 -2.71 37.84166 l 255.12065 7.30869 C 730.06748 673.1021 754.51974 489.43043 754.51974 489.43043 Z" stroke-linecap="round"/>
</g>
<g transform="matrix(1.0347 0 0 1.0347 412.1294 655.9185)" id="bb46eb08-8e3e-4ac5-913b-26d221d967b9-1455">
<path style="stroke: none; stroke-width: 1; stroke-dasharray: none; stroke-linecap: butt; stroke-dashoffset: 0; stroke-linejoin: miter; stroke-miterlimit: 4; is-custom-font: none; font-file-url: none; fill: rgb(251,190,190); fill-rule: nonzero; opacity: 1;" transform=" translate(-515.0628, -600.6821)" d="M 436.31023 551.90313 a 45.04293 45.04293 0 0 0 -0.15258 11.10851 l 3.65653 52.51275 c 0.34331 4.94938 0.68117 9.88653 1.14573 14.82359 c 0.87734 9.58136 2.18792 19.08639 3.81455 28.57778 a 5.08966 5.08966 0 0 0 5.21639 4.94937 c 16.096 3.40585 32.72612 3.26965 49.15321 2.34185 c 25.067 -1.39909 89.1978 -4.0461 93.11589 -9.13583 s 1.63483 -13.32231 -3.474 -17.43793 s -89.73865 -14.14932 -89.73865 -14.14932 c 0.82693 -6.55285 3.32139 -12.72429 5.68777 -18.946 c 4.25049 -11.03491 8.22035 -22.43228 8.29664 -34.2533 s -4.37719 -24.24962 -14.0607 -31.02182 c -7.9656 -5.5597 -18.22129 -6.591 -27.928 -6.3621 c -7.06238 0.203 -19.26485 -1.48907 -25.71553 1.27245 C 440.22288 538.431 437.26387 546.90479 436.31023 551.90313 Z" stroke-linecap="round"/>
</g>
<g transform="matrix(1.0347 0 0 1.0347 367.1567 554.0617)" id="efe93a1e-ccdd-49fd-af5f-e26394aa0937-1456">
<path style="stroke: none; stroke-width: 1; stroke-dasharray: none; stroke-linecap: butt; stroke-dashoffset: 0; stroke-linejoin: miter; stroke-miterlimit: 4; is-custom-font: none; font-file-url: none; fill: rgb(2,12,38); fill-rule: nonzero; opacity: 1;" transform=" translate(-471.5983, -502.2412)" d="M 457.62676 458.523 a 13.16962 13.16962 0 0 0 -2.82413 4.51753 A 213.58786 213.58786 0 0 0 436.862 536.35613 a 7.32926 7.32926 0 0 1 -0.82693 3.55028 a 15.53466 15.53466 0 0 1 -1.87049 2.023 a 7.02422 7.02422 0 0 0 0.84 9.89817 q 0.17346 0.1463 0.35609 0.28121 c 2.09937 -3.95082 7.125 -5.24231 11.59215 -5.58556 c 21.38872 -1.692 42.28155 8.25852 63.73432 7.50784 c -1.51355 -5.23 -3.69057 -10.25571 -4.92486 -15.54841 c -5.4589 -23.50169 8.15632 -49.08916 -0.19073 -71.72579 c -1.6675 -4.52979 -4.45348 -8.98325 -8.84294 -10.96818 a 23.55527 23.55527 0 0 0 -5.66189 -1.49858 c -5.42075 -0.97952 -16.21183 -5.166 -21.45275 -3.48622 c -1.93452 0.624 -2.69742 2.44268 -4.3009 3.54209 C 462.87722 455.90186 459.64576 456.474 457.62676 458.523 Z" stroke-linecap="round"/>
</g>
<g transform="matrix(1.0347 0 0 1.0347 587.8984 654.9846)" id="a38c3c09-000b-42b7-8619-0229d8aff5e9-1457">
<path style="stroke: none; stroke-width: 1; stroke-dasharray: none; stroke-linecap: butt; stroke-dashoffset: 0; stroke-linejoin: miter; stroke-miterlimit: 4; is-custom-font: none; font-file-url: none; fill: rgb(251,190,190); fill-rule: nonzero; opacity: 1;" transform=" translate(-684.9371, -599.7796)" d="M 754.67242 536.1831 c -6.45068 -2.76152 -18.65315 -1.06948 -25.71553 -1.27245 c -9.70666 -0.22892 -19.96235 0.8024 -27.928 6.3621 c -9.68351 6.7722 -14.137 19.2008 -14.0607 31.02182 s 4.04615 23.21839 8.29664 34.2533 c 2.36638 6.22174 4.86084 12.39318 5.68777 18.946 c 0 0 -84.62988 10.0337 -89.73865 14.14932 s -7.39205 12.34819 -3.474 17.43793 s 126.17305 10.19983 142.2691 6.794 a 5.08966 5.08966 0 0 0 5.21639 -4.94937 c 1.62663 -9.49139 2.93721 -18.99642 3.81455 -28.57778 c 0.46456 -4.93706 0.80242 -9.87421 1.14573 -14.82359 l 3.65653 -52.51275 a 45.04293 45.04293 0 0 0 -0.15258 -11.10851 C 762.73613 546.90479 759.77712 538.431 754.67242 536.1831 Z" stroke-linecap="round"/>
</g>
<g transform="matrix(1.0347 0 0 1.0347 632.8711 554.0617)" id="bd3879bf-5d05-49be-b690-c4d97e29a2ab-1458">
<path style="stroke: none; stroke-width: 1; stroke-dasharray: none; stroke-linecap: butt; stroke-dashoffset: 0; stroke-linejoin: miter; stroke-miterlimit: 4; is-custom-font: none; font-file-url: none; fill: rgb(2,12,38); fill-rule: nonzero; opacity: 1;" transform=" translate(-728.4017, -502.2412)" d="M 734.68691 454.346 c -1.60348 -1.09941 -2.36638 -2.91813 -4.3009 -3.54209 c -5.24092 -1.67976 -16.032 2.5067 -21.45275 3.48622 a 23.55527 23.55527 0 0 0 -5.66189 1.49858 c -4.38946 1.98493 -7.17544 6.43839 -8.84294 10.96818 c -8.34705 22.63663 5.26817 48.2241 -0.19073 71.72579 c -1.23429 5.2927 -3.41131 10.3184 -4.92486 15.54841 c 21.45277 0.75068 42.3456 -9.19987 63.73432 -7.50784 c 4.46712 0.34325 9.49278 1.63474 11.59215 5.58556 q 0.18253 -0.13482 0.35609 -0.28121 a 7.02422 7.02422 0 0 0 0.84005 -9.89817 a 15.53466 15.53466 0 0 1 -1.87049 -2.023 a 7.32926 7.32926 0 0 1 -0.82693 -3.55028 a 213.58786 213.58786 0 0 0 -17.94066 -73.31562 a 13.16962 13.16962 0 0 0 -2.82413 -4.51753 C 740.35424 456.474 737.12278 455.90186 734.68691 454.346 Z" stroke-linecap="round"/>
</g>
<g transform="matrix(1.0347 0 0 1.0347 480.9842 704.1645)" id="496506">
<circle style="stroke: none; stroke-width: 1; stroke-dasharray: none; stroke-linecap: butt; stroke-dashoffset: 0; stroke-linejoin: miter; stroke-miterlimit: 4; is-custom-font: none; font-file-url: none; fill: rgb(251,190,190); fill-rule: nonzero; opacity: 1;" cx="0" cy="0" r="19.07275"/>
</g>
<g transform="matrix(1.0347 0 0 1.0347 524.6821 704.1645)" id="651566">
<circle style="stroke: none; stroke-width: 1; stroke-dasharray: none; stroke-linecap: butt; stroke-dashoffset: 0; stroke-linejoin: miter; stroke-miterlimit: 4; is-custom-font: none; font-file-url: none; fill: rgb(251,190,190); fill-rule: nonzero; opacity: 1;" cx="0" cy="0" r="19.07275"/>
</g>
<g transform="matrix(1.0347 0 0 1.0347 510.9372 654.4535)" id="467685">
<path style="stroke: none; stroke-width: 1; stroke-dasharray: none; stroke-linecap: butt; stroke-dashoffset: 0; stroke-linejoin: miter; stroke-miterlimit: 4; is-custom-font: none; font-file-url: none; fill: rgb(63,61,86); fill-rule: nonzero; opacity: 1;" transform=" translate(-610.5569, -599.2662)" d="M 741.57233 690.28819 H 479.54154 a 11.55237 11.55237 0 0 1 -11.53931 -11.53864 V 519.78292 a 11.55237 11.55237 0 0 1 11.53931 -11.53864 H 741.57233 a 11.55237 11.55237 0 0 1 11.5393 11.53864 V 678.74955 A 11.55237 11.55237 0 0 1 741.57233 690.28819 Z" stroke-linecap="round"/>
</g>
<g transform="matrix(1.0347 0 0 1.0347 510.2795 654.4534)" id="bf1cdf42-3b4f-4239-91c9-f6802a29e918">
<circle style="stroke: none; stroke-width: 1; stroke-dasharray: none; stroke-linecap: butt; stroke-dashoffset: 0; stroke-linejoin: miter; stroke-miterlimit: 4; is-custom-font: none; font-file-url: none; fill: rgb(255,255,255); fill-rule: nonzero; opacity: 1;" cx="0" cy="0" r="7.63455"/>
</g>
<g transform="matrix(1.0347 0 0 1.0347 500.0138 732.6724)" id="904158">
<polygon style="stroke: none; stroke-width: 1; stroke-dasharray: none; stroke-linecap: butt; stroke-dashoffset: 0; stroke-linejoin: miter; stroke-miterlimit: 4; is-custom-font: none; font-file-url: none; fill: rgb(2,12,38); fill-rule: nonzero; opacity: 1;" points="439.315,-16.638 -439.315,-16.638 -439.315,10.362 -387.345,10.362 -387.345,16.638 387.365,16.638 387.365,10.362 439.315,10.362 439.315,-16.638 "/>
</g>
<g transform="matrix(1.0347 0 0 1.0347 424.7663 351.2823)" id="311662">
<path style="stroke: none; stroke-width: 1; stroke-dasharray: none; stroke-linecap: butt; stroke-dashoffset: 0; stroke-linejoin: miter; stroke-miterlimit: 4; is-custom-font: none; font-file-url: none; fill: rgb(8,208,173); fill-rule: nonzero; opacity: 1;" transform=" translate(-527.2758, -306.2624)" d="M 537.55552 334.04923 h 0 c -11.3546 0 -20.55934 -9.95244 -20.55934 -22.22945 h 0 V 300.705 c 0 -12.277 9.20473 -22.22945 20.55933 -22.22945 h 0 v 55.57369 Z" stroke-linecap="round"/>
</g>
<g transform="matrix(1.0347 0 0 1.0347 581.8161 351.2824)" id="340745">
<path style="stroke: none; stroke-width: 1; stroke-dasharray: none; stroke-linecap: butt; stroke-dashoffset: 0; stroke-linejoin: miter; stroke-miterlimit: 4; is-custom-font: none; font-file-url: none; fill: rgb(8,208,173); fill-rule: nonzero; opacity: 1;" transform=" translate(-679.0589, -306.2624)" d="M 668.77923 278.47558 h 0 c 11.35461 0 20.55935 9.95245 20.55935 22.22943 v 11.11477 c 0 12.277 -9.20472 22.22945 -20.55935 22.22945 h 0 V 278.47558 Z" stroke-linecap="round"/>
</g>
<g transform="matrix(1.0347 0 0 1.0347 501.3224 303.5469)" id="996444">
<path style="stroke: none; stroke-width: 1; stroke-dasharray: none; stroke-linecap: butt; stroke-dashoffset: 0; stroke-linejoin: miter; stroke-miterlimit: 4; is-custom-font: none; font-file-url: none; fill: rgb(0,240,194); fill-rule: nonzero; opacity: 1;" transform=" translate(-601.2646, -260.1278)" d="M 679.55259 302.45164 h -3.262 c 0 -44.73 -33.65638 -81.12069 -75.026 -81.12069 c -41.36939 0 -75.02605 36.3907 -75.02605 81.12069 h -3.262 c 0 -46.6749 35.11988 -84.64766 78.288 -84.64766 C 644.433 217.804 679.55259 255.77677 679.55259 302.45164 Z" stroke-linecap="round"/>
</g>
</svg>